<?xml version="1.0" encoding="UTF-8" standalone="no"?>
<!DOCTYPE svg PUBLIC "-//W3C//DTD SVG 1.1//EN" "http://www.w3.org/Graphics/SVG/1.1/DTD/svg11.dtd">
<svg width="100%" height="100%" viewBox="0 0 518 260" version="1.1" xmlns="http://www.w3.org/2000/svg" xmlns:xlink="http://www.w3.org/1999/xlink" xml:space="preserve" xmlns:serif="http://www.serif.com/" style="fill-rule:evenodd;clip-rule:evenodd;stroke-linecap:round;stroke-linejoin:round;stroke-miterlimit:1.5;">
    <g id="Artboard1" transform="matrix(0.880179,0,0,0.781744,-45.6604,-21.7596)">
        <rect x="51.876" y="27.835" width="587.767" height="332.171" style="fill:none;"/>
        <g id="Layer2" transform="matrix(1.13613,0,0,1.27919,-6.06653,-6.70349)">
            <g transform="matrix(0.720439,0,0,0.720439,-70.2897,104.988)">
                <g transform="matrix(96,0,0,96,563.101,185.014)">
                    <path d="M0.213,-0.371C0.212,-0.338 0.211,-0.312 0.211,-0.293C0.211,-0.245 0.214,-0.207 0.219,-0.181C0.224,-0.154 0.232,-0.134 0.244,-0.123C0.255,-0.111 0.271,-0.105 0.292,-0.105C0.303,-0.105 0.315,-0.108 0.33,-0.115C0.345,-0.122 0.358,-0.13 0.37,-0.141C0.377,-0.148 0.385,-0.151 0.392,-0.151C0.4,-0.151 0.406,-0.147 0.411,-0.138C0.417,-0.129 0.419,-0.118 0.419,-0.105C0.419,-0.092 0.417,-0.08 0.411,-0.068C0.406,-0.056 0.399,-0.046 0.389,-0.038C0.354,-0.009 0.315,0.005 0.271,0.005C0.208,0.005 0.161,-0.021 0.132,-0.075C0.103,-0.128 0.088,-0.197 0.088,-0.282C0.088,-0.311 0.089,-0.341 0.091,-0.371L0.052,-0.371C0.032,-0.371 0.019,-0.375 0.012,-0.382C0.005,-0.389 0.001,-0.401 0.001,-0.417C0.001,-0.454 0.016,-0.473 0.046,-0.473L0.103,-0.473C0.114,-0.546 0.132,-0.613 0.155,-0.674C0.178,-0.735 0.206,-0.783 0.239,-0.819C0.273,-0.855 0.308,-0.873 0.346,-0.873C0.374,-0.873 0.396,-0.861 0.412,-0.836C0.428,-0.811 0.436,-0.78 0.436,-0.743C0.436,-0.64 0.393,-0.55 0.306,-0.473L0.418,-0.473C0.429,-0.473 0.436,-0.471 0.441,-0.466C0.446,-0.461 0.448,-0.453 0.448,-0.44C0.448,-0.394 0.41,-0.371 0.335,-0.371L0.213,-0.371ZM0.319,-0.777C0.309,-0.777 0.298,-0.764 0.285,-0.74C0.273,-0.715 0.262,-0.68 0.251,-0.635C0.239,-0.591 0.23,-0.542 0.223,-0.488C0.262,-0.522 0.292,-0.56 0.312,-0.603C0.331,-0.645 0.341,-0.683 0.341,-0.718C0.341,-0.757 0.334,-0.777 0.319,-0.777Z" style="fill:rgb(85,142,179);fill-rule:nonzero;"/>
                </g>
                <text x="309.085px" y="185.014px" style="font-family:'Pacifico-Regular', 'Pacifico';font-size:96px;fill:rgb(85,142,179);">B<tspan x="386.557px 430.909px 479.389px " y="185.014px 185.014px 185.014px ">udg</tspan>e</text>
            </g>
            <g transform="matrix(1.19232,0,0,1.19232,-296.593,57.5033)">
                <g transform="matrix(96,0,0,96,486.397,89.0141)">
                    <path d="M0.406,-0.193C0.415,-0.193 0.422,-0.189 0.427,-0.181C0.432,-0.173 0.434,-0.162 0.434,-0.148C0.434,-0.124 0.428,-0.103 0.417,-0.086C0.398,-0.057 0.374,-0.035 0.344,-0.019C0.313,-0.003 0.277,0.005 0.235,0.005C0.171,0.005 0.121,-0.014 0.086,-0.053C0.051,-0.091 0.033,-0.143 0.033,-0.208C0.033,-0.254 0.043,-0.297 0.062,-0.337C0.081,-0.376 0.108,-0.408 0.142,-0.431C0.177,-0.454 0.216,-0.466 0.259,-0.466C0.298,-0.466 0.329,-0.455 0.352,-0.432C0.375,-0.408 0.387,-0.377 0.387,-0.338C0.387,-0.292 0.371,-0.253 0.338,-0.22C0.305,-0.187 0.248,-0.16 0.169,-0.141C0.185,-0.11 0.212,-0.095 0.25,-0.095C0.277,-0.095 0.3,-0.101 0.318,-0.114C0.335,-0.127 0.356,-0.148 0.379,-0.178C0.387,-0.188 0.396,-0.193 0.406,-0.193ZM0.242,-0.368C0.217,-0.368 0.197,-0.354 0.18,-0.325C0.163,-0.296 0.154,-0.262 0.154,-0.221L0.154,-0.219C0.193,-0.228 0.224,-0.242 0.247,-0.261C0.27,-0.28 0.281,-0.301 0.281,-0.326C0.281,-0.339 0.278,-0.349 0.271,-0.357C0.264,-0.364 0.254,-0.368 0.242,-0.368Z" style="fill:white;fill-rule:nonzero;"/>
                </g>
                <text x="309.085px" y="89.014px" style="font-family:'Pacifico-Regular', 'Pacifico';font-size:96px;fill:white;">Oli<tspan x="443.293px " y="89.014px ">v</tspan></text>
            </g>
        </g>
        <g id="Layer3" transform="matrix(1.13613,0,0,1.27919,-6.06653,-6.70349)">
            <g transform="matrix(0.304685,0.8927,1.09514,-0.373781,256.961,27.9259)">
                <path d="M257.301,183.654C250.93,165.734 247.144,159.98 231.153,145C196.298,112.348 128.426,103.561 128.426,103.561C128.426,103.561 238.067,119.668 252.049,186.405C252.062,186.467 257.301,183.877 257.301,183.654Z" style="fill:rgb(204,162,53);stroke:rgb(204,162,53);stroke-width:2.31px;"/>
            </g>
            <g transform="matrix(1.38954,1.26913,1.26913,-1.38954,-37.4962,129.931)">
                <ellipse cx="232.225" cy="152.068" rx="5.425" ry="16.005" style="fill:rgb(77,176,155);"/>
            </g>
            <g transform="matrix(-1.8624,0.2701,0.2701,1.8624,844.342,-229.258)">
                <ellipse cx="232.225" cy="152.068" rx="5.425" ry="16.005" style="fill:rgb(77,176,155);"/>
            </g>
            <g transform="matrix(-1.8624,0.2701,0.2701,1.8624,874.473,-207.504)">
                <ellipse cx="232.225" cy="152.068" rx="5.425" ry="16.005" style="fill:rgb(77,176,155);"/>
            </g>
            <g transform="matrix(1.05736,1.48562,1.48562,-1.05736,-20.7392,14.6165)">
                <ellipse cx="232.225" cy="152.068" rx="5.425" ry="16.005" style="fill:rgb(77,176,155);"/>
            </g>
            <g transform="matrix(0.35477,1.51782,1.51782,-0.35477,113.288,-125.272)">
                <ellipse cx="232.225" cy="152.068" rx="5.425" ry="16.005" style="fill:rgb(77,176,155);"/>
            </g>
            <g transform="matrix(-0.750576,0.992589,0.992589,0.750576,408.891,-259.881)">
                <ellipse cx="232.225" cy="152.068" rx="5.425" ry="16.005" style="fill:rgb(77,176,155);"/>
            </g>
            <g transform="matrix(-0.336616,1.32909,1.32909,0.336616,265.564,-243.663)">
                <ellipse cx="232.225" cy="152.068" rx="5.425" ry="16.005" style="fill:rgb(77,176,155);"/>
            </g>
            <g transform="matrix(-0.0950738,1.50796,1.51407,0.0954589,192.306,-218.287)">
                <ellipse cx="232.225" cy="152.068" rx="5.425" ry="16.005" style="fill:rgb(77,176,155);"/>
            </g>
            <g transform="matrix(-1.45855,0.175455,0.175455,1.45855,737.629,-171.581)">
                <ellipse cx="232.225" cy="152.068" rx="5.425" ry="16.005" style="fill:rgb(77,176,155);"/>
            </g>
        </g>
    </g>
</svg>
